<svg id="visual" viewBox="0 0 900 600" width="900" height="600" xmlns="http://www.w3.org/2000/svg" xmlns:xlink="http://www.w3.org/1999/xlink" version="1.1"><path d="M0 139L82 235L164 211L245 151L327 181L409 283L491 169L573 175L655 175L736 115L818 133L900 271L900 0L818 0L736 0L655 0L573 0L491 0L409 0L327 0L245 0L164 0L82 0L0 0Z" fill="#00cc8e"></path><path d="M0 313L82 361L164 325L245 343L327 295L409 433L491 331L573 391L655 289L736 277L818 289L900 355L900 269L818 131L736 113L655 173L573 173L491 167L409 281L327 179L245 149L164 209L82 233L0 137Z" fill="#00b98a"></path><path d="M0 379L82 421L164 367L245 391L327 397L409 469L491 421L573 445L655 367L736 367L818 361L900 409L900 353L818 287L736 275L655 287L573 389L491 329L409 431L327 293L245 341L164 323L82 359L0 311Z" fill="#00a784"></path><path d="M0 493L82 493L164 499L245 529L327 559L409 529L491 511L573 523L655 481L736 499L818 487L900 493L900 407L818 359L736 365L655 365L573 443L491 419L409 467L327 395L245 389L164 365L82 419L0 377Z" fill="#00957c"></path><path d="M0 601L82 601L164 601L245 601L327 601L409 601L491 601L573 601L655 601L736 601L818 601L900 601L900 491L818 485L736 497L655 479L573 521L491 509L409 527L327 557L245 527L164 497L82 491L0 491Z" fill="#038373"></path></svg>